<svg height="488pt" viewBox="0 -4 488.47332 488" width="488pt" xmlns="http://www.w3.org/2000/svg"><path d="m304.472656 257.308594c-123.597656 82.125-259.75 29.742187-296.472656-114.027344 123.601562-82.109375 259.753906-29.75 296.472656 114.027344zm0 0" fill="#5f9548"/><path d="m299.546875 246.835938-95.585937-36.761719-32.917969-74.0625-14.625 6.496093 26.421875 59.445313-25.277344-9.726563-27.210938-61.207031-14.621093 6.496094 20.710937 46.589844-25.273437-9.71875-18.636719-41.945313-14.625 6.503906 12.136719 27.3125-37.648438-14.480468-5.753906 14.945312 37.648437 14.472656-27.3125 12.144532 6.503907 14.625 41.9375-18.640625 25.269531 9.71875-46.582031 20.703125 6.503906 14.632812 61.207031-27.207031 25.273438 9.71875-59.441406 26.417969 6.503906 14.621094 74.058594-32.917969 95.582031 36.757812zm0 0" fill="#68a34f"/><path d="m287.457031 298.5c-145.457031-29.335938-204.703125-162.632812-129.007812-290.265625 145.464843 29.335937 204.703125 162.640625 129.007812 290.265625zm0 0" fill="#7eb457"/><path d="m249.785156 194.035156 29.097656-75.640625-14.9375-5.75-23.351562 60.703125-11-24.746094 24.046875-62.519531-14.933594-5.742187-18.304687 47.574218-10.992188-24.734374 16.472656-42.832032-14.9375-5.753906-10.726562 27.898438-16.386719-36.855469-14.621093 6.496093 16.382812 36.863282-27.90625-10.730469-5.742188 14.9375 42.839844 16.480469 11 24.742187-47.59375-18.3125-5.75 14.945313 62.535156 24.054687 10.992188 24.730469-60.703125-23.34375-5.753906 14.933594 75.648437 29.097656 41.59375 93.574219 14.625-6.496094zm0 0" fill="#88c25e"/><path d="m350.074219 13.835938-5.601563-5.601563-5.597656 5.5625c-12.820312 12.433594-27.847656 22.375-44.304688 29.308594-50.378906 22.195312-86.097656 76.898437-86.097656 141.128906 0 83.945313 60.886719 152 136 152 75.113282 0 136-68.054687 136-152 0-64.230469-35.71875-118.933594-86.136718-141.128906-16.441407-6.925781-31.449219-16.851563-44.261719-29.269531zm0 0" fill="#95573a"/><path d="m446.671875 84.324219c-43.964844 117.976562-140.648437 171.910156-207.648437 195.847656 24.074218 34.578125 63.324218 55.445313 105.449218 56.0625 75.113282 0 136-68.054687 136-152 .257813-36.152344-11.648437-71.339844-33.800781-99.910156zm0 0" fill="#8f4d2e"/><path d="m232.472656 208.234375c-7.347656.011719-14.6875.5-21.976562 1.464844 10.898437 71.800781 66.648437 126.535156 133.976562 126.535156 13.316406-.015625 26.539063-2.195313 39.152344-6.464844-8.078125-68.300781-72.640625-121.535156-151.152344-121.535156zm0 0" fill="#8f4d2e"/><g fill="#7a3b1d"><path d="m336.472656 48.234375h16v112h-16zm0 0"/><path d="m336.472656 176.234375h16v32h-16zm0 0"/><path d="m336.472656 224.234375h16v80h-16zm0 0"/><path d="m304.753906 62.113281c-21.570312 79.988281-21.570312 164.257813 0 244.242188l15.4375-4.242188c-20.828125-77.203125-20.828125-158.550781 0-235.757812zm0 0"/><path d="m240.152344 184.066406 16 .335938c.800781-37.695313 12-69.03125 22.722656-83.367188l-12.800781-9.601562c-14.992188 20-25.160157 56.351562-25.921875 92.632812zm0 0"/><path d="m368.753906 66.355469c20.832032 77.207031 20.832032 158.554687 0 235.757812l15.4375 4.242188c21.570313-79.984375 21.570313-164.253907 0-244.242188zm0 0"/><path d="m443.386719 142.339844-15.546875 3.792968c9.835937 41.574219 3.265625 85.339844-18.34375 122.199219l13.953125 7.808594c23.613281-40.375 30.753906-88.296875 19.9375-133.800781zm0 0"/><path d="m438.464844 125.625c-3.996094-11.523438-9.023438-22.667969-15.015625-33.292969l-13.953125 7.808594c5.515625 9.800781 10.148437 20.078125 13.839844 30.703125zm0 0"/></g><path d="m14.074219 330.675781-5.601563 5.558594 5.5625 5.601563c12.433594 12.820312 22.375 27.84375 29.308594 44.304687 22.195312 50.375 76.898438 86.09375 141.128906 86.09375 83.945313 0 152-60.886719 152-136s-68.054687-136-152-136c-64.230468 0-118.933594 35.71875-141.128906 86.136719-6.921875 16.457031-16.847656 31.480468-29.269531 44.304687zm0 0" fill="#a36548"/><path d="m308.21875 257.449219c-53.679688 96.730469-176.265625 131.65625-256 145.242187 29.261719 44.304688 79.167969 70.546875 132.253906 69.542969 83.945313 0 152-60.886719 152-136-.148437-28.714844-10.121094-56.515625-28.253906-78.785156zm0 0" fill="#95573a"/><path d="m272.472656 336.234375c8.921875-.007813 17.230469-4.523437 22.097656-12 4.863282-7.476563 5.625-16.902344 2.023438-25.0625-17.257812-39.097656-61.007812-66.9375-112.121094-66.9375-49.246094 0-94.191406 26.9375-111.832031 67.015625l-.167969.425781-.152344.351563c-3.347656 8.113281-2.414062 17.367187 2.492188 24.644531 4.90625 7.28125 13.128906 11.621094 21.910156 11.5625zm0 0" fill="#ffb531"/><path d="m274.785156 336.234375c8.914063.023437 17.214844 4.539063 22.074219 12.015625 4.855469 7.472656 5.613281 16.894531 2.015625 25.050781-17.234375 39.09375-60.976562 66.933594-112.097656 66.933594-49.246094 0-94.191406-26.933594-111.832032-67.015625l-.191406-.421875-.152344-.355469c-3.351562-8.117187-2.414062-17.375 2.5-24.660156 4.914063-7.28125 13.148438-11.617188 21.933594-11.546875zm0 0" fill="#ffa912"/><path d="m268.59375 305.378906-20-12c-8.058594-4.804687-17.378906-7.074218-26.746094-6.511718-.148437 0-.269531-.105469-.421875-.113282l-9.601562-.535156c-6.699219-.074219-12.796875-3.898438-15.773438-9.902344-2.777343-5.15625-2.367187-11.445312 1.0625-16.195312 5.191407-7.148438 11.871094-10.207032 30.59375-4.710938 4.195313 1.132813 8.53125-1.292968 9.757813-5.460937 1.230468-4.171875-1.097656-8.558594-5.238282-9.882813-15.585937-4.589844-33.058593-7.03125-45.976562 8.054688-2.128906-3.472656-5.015625-6.425782-8.441406-8.628906-9.542969-5.023438-20.765625-5.789063-30.902344-2.113282-4.160156 1.492188-6.324219 6.078125-4.828125 10.234375 1.492187 4.160157 6.074219 6.324219 10.234375 4.828125 5.558594-2.023437 11.691406-1.789062 17.082031.648438 4.21875 3.390625 6.667969 8.515625 6.648438 13.929687.660156 3.523438.113281 7.167969-1.554688 10.34375-4.230469 6.503907-14.398437 7.527344-24.191406 8.527344-2.800781.28125-5.511719.558594-8 .945313-7.730469.335937-15.253906 2.582031-21.902344 6.542968l-20 12c-3.789062 2.277344-5.015625 7.191406-2.742187 10.980469 2.277344 3.789063 7.191406 5.015625 10.980468 2.738281l20-12c9.773438-5.871094 21.988282-5.871094 31.761719 0 14.839844 8.921875 33.394531 8.921875 48.238281 0 9.773438-5.871094 21.988282-5.871094 31.761719 0l20 12c3.789063 2.277344 8.703125 1.050782 10.980469-2.738281 2.273438-3.789063 1.046875-8.703125-2.742188-10.980469zm-92.800781-8.863281c3.671875-1.761719 6.941406-4.261719 9.601562-7.34375 2.191407 2.828125 4.816407 5.296875 7.773438 7.3125-5.660157 1.675781-11.683594 1.6875-17.351563.03125zm0 0" fill="#f79900"/><path d="m273.640625 356.113281c-1.089844-1.820312-2.863281-3.132812-4.921875-3.648437-2.0625-.515625-4.242188-.1875-6.0625.90625l-20 12c-9.769531 5.871094-21.988281 5.871094-31.757812 0-14.84375-8.921875-33.398438-8.921875-48.242188 0-9.769531 5.871094-21.988281 5.871094-31.757812 0l-20-12c-3.789063-2.277344-8.707032-1.046875-10.980469 2.738281-2.277344 3.789063-1.050781 8.707031 2.738281 10.980469l20 12c6.65625 3.964844 14.191406 6.210937 21.929688 6.546875 2.519531.382812 5.222656.664062 8 .941406 9.816406 1 20 2.023437 24.191406 8.527344 1.667968 3.175781 2.214844 6.820312 1.550781 10.34375.023437 5.414062-2.421875 10.542969-6.648437 13.929687-5.371094 2.433594-11.484376 2.671875-17.03125.664063-4.15625-1.503907-8.742188.644531-10.246094 4.800781s.644531 8.742188 4.800781 10.246094c4.550781 1.5625 9.324219 2.371094 14.132813 2.402344 5.894531.113281 11.703124-1.433594 16.761718-4.464844 3.441406-2.210938 6.332032-5.179688 8.457032-8.671875 6.273437 7.597656 15.699218 11.878906 25.550781 11.609375 6.933593-.203125 13.804687-1.390625 20.40625-3.523438 2.800781-.753906 4.972656-2.96875 5.675781-5.785156.703125-2.8125-.171875-5.789062-2.289062-7.773438-2.117188-1.984374-5.140626-2.667968-7.90625-1.785156-18.710938 5.480469-25.390626 2.402344-30.589844-4.71875-3.429688-4.746094-3.84375-11.03125-1.066406-16.183594 3.085937-6.113281 9.363281-9.957031 16.210937-9.921874l9.160156-.519532c.148438 0 .269531-.09375.421875-.109375 9.367188.5625 18.6875-1.707031 26.746094-6.511719l20-12c1.832031-1.089843 3.15625-2.863281 3.675781-4.933593.519531-2.066407.191407-4.257813-.910156-6.085938zm-95.519531 19.839844c5.691406-1.675781 11.742187-1.675781 17.433594 0-2.96875 2.007813-5.601563 4.46875-7.800782 7.296875-2.679687-3.066406-5.957031-5.546875-9.632812-7.296875zm0 0" fill="#f59416"/><path d="m274.785156 344.234375h-186.3125c-4.417968 0-8-3.582031-8-8s3.582032-8 8-8h186.3125c4.417969 0 8 3.582031 8 8s-3.582031 8-8 8zm0 0" fill="#f79900"/><path d="m397.546875 35.796875c-15.527344-6.546875-29.703125-15.910156-41.816406-27.617187l-5.601563-5.601563c-3.125-3.121094-8.1875-3.121094-11.3125 0l-5.597656 5.601563c-12.105469 11.699218-26.269531 21.058593-41.777344 27.597656-11.023437 4.828125-21.363281 11.082031-30.761718 18.601562-16.554688 13.304688-30.230469 29.832032-40.207032 48.585938-.136718.199218-.261718.421875-.382812.636718-1.945313 3.671876-3.664063 7.585938-5.359375 11.511719l-5.335938-12 16.453125-42.773437-14.902344-5.703125-10.710937 27.804687-16.367187-36.796875-14.625 6.476563 16.40625 36.914062-27.960938-10.753906-5.742188 14.9375 42.929688 16.488281 10.972656 24.695313-47.597656-18.28125-5.777344 14.945312 51.199219 19.65625c-1.222656 6.460938-2.097656 12.980469-2.621094 19.535156l-35.777343-13.742187-5.726563 14.917969 41.007813 15.738281c0 1.925781.054687 3.855469.152343 5.773437-5.339843-.472656-10.75-.710937-16.234375-.710937-11.09375.015625-22.164062 1.070313-33.0625 3.144531-.710937-1.335937-1.433594-2.671875-2.105468-4l-.121094-.238281c-.34375-.800781-.71875-1.601563-1.09375-2.402344l-.320313-.671875c-6.519531-14.578125-10.894531-30.023437-12.984375-45.855468-.007812-.210938-.023437-.421876-.054687-.632813-1.460938-12.117187-1.667969-24.351563-.609375-36.511719 3.023437-30.96875 12.703125-60.917968 28.375-87.800781 29.253906 6.160156 56.917968 18.296875 81.257812 35.648437l9.4375-12.917968c-27.804687-19.804688-59.589844-33.316406-93.140625-39.601563-3.335937-.667969-6.726562.84375-8.457031 3.769531-17.207031 28.246094-28.3125 59.78125-32.601562 92.574219-41.371094 2.597657-81.261719 16.378907-115.414063 39.871094-2.835937 1.882813-4.171875 5.351563-3.328125 8.648437 8.109375 33.628907 23.523438 65.054688 45.144531 92.058594l12.359375-10.160156c-18.964844-23.660156-32.769531-51.023438-40.527344-80.335938 30.046876-19.664062 64.597657-31.367187 100.40625-34.015624-.433593 10.011718-.046874 20.042968 1.160157 29.992187 0 .347656.023437.699219.074219 1.046875 1.65625 12.535156 4.605468 24.867188 8.796874 36.800781l-16.511718-6.289062-18.613282-41.898438-14.625 6.507813 12.160157 27.308594-37.695313-14.46875-5.738281 14.933593 37.648437 14.464844-27.3125 12.136719 6.503907 14.625 41.992187-18.664063 27.703125 10.550781c-42.992187 12.242188-78.488281 42.671876-97.152343 83.296876-6.546876 15.550781-15.917969 29.753906-27.644532 41.886718l-5.5625 5.601563c-3.121094 3.121093-3.121094 8.1875 0 11.308593l5.5625 5.601563c11.722656 12.128906 21.097656 26.324219 27.644532 41.871094 24.304687 55.128906 82.578124 90.816406 148.449218 90.816406 88.226563 0 160-64.597656 160-144 0-69.398437-54.839844-127.488281-127.574218-141.015625-.25-3.632812-.425782-7.289062-.425782-10.984375v-2.398437c.214844-11.511719 1.609375-22.972657 4.160156-34.199219.800782-3.066407 1.527344-5.96875 2.464844-9.019531 2.75-9.320313 6.394532-18.351563 10.878906-26.972657.121094-.183593.230469-.367187.328126-.5625l.121093-.222656c8.949219-16.96875 21.277344-31.925781 36.222657-43.953125 8.308593-6.652344 17.453124-12.1875 27.199218-16.464844 17.316406-7.335937 33.121094-17.808594 46.625-30.894531 13.503906 13.082031 29.3125 23.558594 46.625 30.894531 49.441406 21.699219 81.375 74.21875 81.375 133.792969 0 73.105469-48.589844 134.585937-113.039062 143.03125l2.078125 15.855469c72.386719-9.46875 126.960937-77.78125 126.960937-158.886719 0-65.925781-35.695312-124.191406-90.925781-148.4375zm-69.074219 300.4375c0 70.578125-64.597656 128-144 128-59.527344 0-112.054687-31.933594-133.808594-81.351563-7.316406-17.324218-17.789062-33.144531-30.878906-46.648437 13.089844-13.503906 23.5625-29.320313 30.878906-46.648437 21.753907-49.414063 74.28125-81.351563 133.808594-81.351563 79.402344 0 144 57.425781 144 128zm0 0"/><path d="m336.472656 48.234375h16v112h-16zm0 0"/><path d="m336.472656 176.234375h16v32h-16zm0 0"/><path d="m336.472656 224.234375h16v48h-16zm0 0"/><path d="m304.753906 62.113281c-13.03125 47.695313-18.3125 97.175781-15.648437 146.546875l16-.847656c-2.582031-47.660156 2.519531-95.421875 15.105469-141.457031zm0 0"/><path d="m240.152344 184.066406 16 .335938c.800781-37.695313 12-69.03125 22.722656-83.367188l-12.800781-9.601562c-14.992188 20-25.160157 56.351562-25.921875 92.632812zm0 0"/><path d="m384.191406 306.355469c21.570313-79.984375 21.570313-164.253907 0-244.242188l-15.4375 4.242188c20.832032 77.207031 20.832032 158.554687 0 235.757812zm0 0"/><path d="m423.449219 276.140625c23.613281-40.375 30.753906-88.296875 19.9375-133.800781l-15.546875 3.792968c9.835937 41.574219 3.265625 85.339844-18.34375 122.199219zm0 0"/><path d="m423.449219 92.332031-13.953125 7.808594c5.515625 9.800781 10.148437 20.078125 13.839844 30.703125l15.128906-5.21875c-3.996094-11.523438-9.023438-22.667969-15.015625-33.292969zm0 0"/><path d="m225.273438 230.242188c-23.398438-7.058594-48.230469-7.914063-72.054688-2.480469-1.820312.324219-3.613281.757812-5.378906 1.304687-36.183594 8.765625-66.5 33.359375-82.535156 66.960938l-.34375.800781c-4.507813 10.347656-3.472657 22.273437 2.753906 31.6875 2.195312 3.328125 4.949218 6.261719 8.132812 8.664063-2.222656 2.007812-4.183594 4.292968-5.832031 6.800781-6.222656 9.414062-7.257813 21.339843-2.742187 31.6875l.34375.800781c16.042968 33.621094 46.390624 58.222656 82.609374 66.964844 1.640626.5 3.308594.902344 5 1.210937 24.015626 5.542969 49.066407 4.683594 72.648438-2.488281 2.246094-.519531 4.476562-1.089844 6.664062-1.738281l-.105468-.351563c31.609375-10.464844 57.554687-33.421875 71.792968-63.519531 6.472657-14.546875 2.0625-31.632813-10.640624-41.230469 10.960937-9.960937 14.320312-25.816406 8.335937-39.363281-14.242187-30.09375-40.1875-53.046875-71.792969-63.519531l.105469-.351563c-2.289063-.695312-4.609375-1.3125-6.960937-1.839843zm-39.839844 50.929687c2.191406 2.828125 4.816406 5.296875 7.777344 7.3125-5.679688 1.671875-11.722657 1.671875-17.402344 0 3.683594-1.746094 6.960937-4.238281 9.632812-7.3125zm2.3125 110.128906c-2.664063-3.082031-5.929688-5.578125-9.601563-7.335937 5.6875-1.6875 11.746094-1.6875 17.433594 0-2.984375 2.011718-5.625 4.488281-7.824219 7.335937zm87.039062-47.066406c6.214844.011719 12.003906 3.160156 15.394532 8.367187 3.386718 5.210938 3.914062 11.78125 1.40625 17.464844-13.265626 27.613282-37.769532 48.183594-67.265626 56.464844-14.398437 3.253906-20.269531.183594-24.894531-6.183594-3.429687-4.75-3.839843-11.039062-1.066406-16.191406 3.089844-6.109375 9.367187-9.949219 16.210937-9.914062l9.160157-.519532v-.144531c9.515625.667969 19.007812-1.597656 27.199219-6.488281l20-12-8.242188-13.710938-20 12c-9.769531 5.871094-21.984375 5.871094-31.757812 0-14.839844-8.925781-33.398438-8.925781-48.242188 0-9.769531 5.871094-21.984375 5.871094-31.757812 0l-20-12-8.242188 13.710938 20 12c6.65625 3.964844 14.191406 6.21875 21.929688 6.554687 2.519531.382813 5.222656.664063 8 .941407 9.816406 1 20 2.023437 24.191406 8.519531 1.667968 3.175781 2.214844 6.820312 1.550781 10.34375.027344 5.417969-2.421875 10.546875-6.644531 13.9375-4.117188 2.082031-8.835938 2.648437-13.328125 1.601562-1.097657-.25-2.203125-.503906-3.289063-.800781l-.417968-.121094c-31.667969-7.421875-58.285157-28.773437-72.398438-58.078125l-7.320312 3.199219 6.992187-4c-2.375-5.394531-1.816406-11.628906 1.480469-16.511719 3.4375-5.269531 9.300781-8.445312 15.589844-8.441406zm14.488282-41.832031c2.511718 5.6875 1.980468 12.253906-1.40625 17.464844-3.390626 5.210937-9.179688 8.355468-15.394532 8.367187h-175.75c-6.304687-.003906-12.179687-3.195313-15.609375-8.488281-3.300781-4.886719-3.863281-11.121094-1.488281-16.519532l-7.328125-3.199218 7.664063 2.449218c14.105468-29.292968 40.699218-50.636718 72.351562-58.066406l.472656-.144531c1.070313-.269531 2.160156-.519531 3.238282-.796875 4.507812-1.054688 9.238281-.488281 13.371093 1.597656 4.222657 3.390625 6.667969 8.519532 6.648438 13.9375.660156 3.523438.113281 7.167969-1.554688 10.34375-4.230469 6.496094-14.398437 7.519532-24.191406 8.519532-2.800781.28125-5.511719.558593-8 .945312-7.734375.328125-15.269531 2.574219-21.917969 6.542969l-20 12 8.238282 13.710937 20-12c9.773437-5.871094 21.988281-5.871094 31.761718 0 14.839844 8.929688 33.398438 8.929688 48.238282 0 9.773437-5.871094 21.988281-5.871094 31.761718 0l20 12 8.238282-13.710937-20-12c-8.191407-4.890625-17.683594-7.152344-27.199219-6.488281v-.144532l-9.601563-.535156c-6.699218-.078125-12.789062-3.898438-15.773437-9.898438-2.777344-5.15625-2.363281-11.449218 1.0625-16.199218 4.617187-6.34375 10.449219-9.4375 24.800781-6.199219 29.539062 8.269531 54.085938 28.859375 67.367188 56.511719zm0 0"/></svg>