<?xml version="1.0" standalone="no"?><!DOCTYPE svg PUBLIC "-//W3C//DTD SVG 1.1//EN" "http://www.w3.org/Graphics/SVG/1.1/DTD/svg11.dtd"><svg t="1600844484401" class="icon" viewBox="0 0 1024 1024" version="1.1" xmlns="http://www.w3.org/2000/svg" p-id="1774" width="128" height="128" xmlns:xlink="http://www.w3.org/1999/xlink"><defs><style type="text/css"></style></defs><path d="M337.376 772.16a97.376 97.376 0 1 1 0 194.784 97.376 97.376 0 0 1 0-194.784z m352 0a97.376 97.376 0 1 1 0 194.784 97.376 97.376 0 0 1 0-194.784z m-352-350.592a97.376 97.376 0 1 1 0 194.784 97.376 97.376 0 0 1 0-194.784z m352 0a97.376 97.376 0 1 1 0 194.784 97.376 97.376 0 0 1 0-194.784z m-352-350.624a97.376 97.376 0 1 1 0 194.784 97.376 97.376 0 0 1 0-194.784z m352 0a97.376 97.376 0 1 1 0 194.784 97.376 97.376 0 0 1 0-194.784z" p-id="1775"></path></svg>