<?xml version="1.0" standalone="no"?><!DOCTYPE svg PUBLIC "-//W3C//DTD SVG 1.1//EN" "http://www.w3.org/Graphics/SVG/1.1/DTD/svg11.dtd"><svg t="1603109593865" class="icon" viewBox="0 0 1024 1024" version="1.1" xmlns="http://www.w3.org/2000/svg" p-id="9065" width="128" height="128" xmlns:xlink="http://www.w3.org/1999/xlink"><defs><style type="text/css"></style></defs><path d="M938.666667 981.333333 85.333333 981.333333c-46.933333 0-85.333333-38.4-85.333333-85.333333L0 298.666667c0-46.933333 38.4-85.333333 85.333333-85.333333l192 0L277.333333 128c0-46.933333 38.4-85.333333 85.333333-85.333333l298.666667 0c46.933333 0 85.333333 38.4 85.333333 85.333333l0 85.333333 192 0c46.933333 0 85.333333 38.4 85.333333 85.333333l0 597.333333C1024 942.933333 985.6 981.333333 938.666667 981.333333zM661.333333 149.333333c0-12.8-8.533333-21.333333-21.333333-21.333333L384 128c-12.8 0-21.333333 8.533333-21.333333 21.333333l0 64 298.666667 0L661.333333 149.333333zM938.666667 320c0-12.8-8.533333-21.333333-21.333333-21.333333L106.666667 298.666667c-12.8 0-21.333333 8.533333-21.333333 21.333333l0 128 213.333333 0c17.066667 0 32 10.666667 38.4 23.466667l0 0 51.2 104.533333 245.333333 0 51.2-104.533333 0 0c6.4-14.933333 21.333333-23.466667 38.4-23.466667l213.333333 0L936.533333 320zM938.666667 533.333333l-187.733333 0-51.2 104.533333 0 0c-6.4 14.933333-21.333333 23.466667-38.4 23.466667L362.666667 661.333333c-17.066667 0-32-10.666667-38.4-23.466667l0 0L273.066667 533.333333 85.333333 533.333333l0 341.333333c0 12.8 8.533333 21.333333 21.333333 21.333333l810.666667 0c12.8 0 21.333333-8.533333 21.333333-21.333333L938.666667 533.333333z" p-id="9066"></path></svg>